# xmcd
#
# Track frame offsets:
#	150
#	16382
#	29943
#	44571
#	58684
#	74262
#	88445
#	107463
#	123966
#	140538
#	159877
#	175773
#	191715
#	204890
#	224295
#	240478
#
# Disc length: 3415 seconds
#
# Revision: 1
# Processed by: cddbd v1.5.2PL0 Copyright (c) Steve Scherf et al.
# Submitted via: audiograbber 1.83.01
#
DISCID=e50d5510
DTITLE=Various Artist - ESP486-06
DYEAR=2005
DGENRE=Country
TTITLE0=SHANIA TWAIN W/BILLY CURRINGTON - PARTY FOR TWO
TTITLE1=AMBER DODSON - I AIN'T YOUR MAMA
TTITLE2=GRETCHEN WILSON - WHEN IT RAINS
TTITLE3=ALISON KRAUSE and UNION STATION - RESTLESS
TTITLE4=JESSICA ANDREWS - SUMMER GIRL
TTITLE5=LAUREN LUCAS - WHAT YOU AIN'T GONNA GET
TTITLE6=SHANIA TWAIN - DON'T
TTITLE7=COWBOY CRUSH - NOBODY EVER DIED OF A BROKEN HEART
TTITLE8=PATTY LOVELESS - KEEP YOUR DISTANCE
TTITLE9=REBECCA LYNN HOWARD - NO ONE'LL EVER LOVE ME
TTITLE10=SHANNON BROWN - CORN FED
TTITLE11=DEANA CARTER - ONE DAY AT A TIME
TTITLE12=GRETCHEN WILSON - I DON'T FEEL LIKE LOVING YOU TODAY
TTITLE13=SUGARLAND - JUST MIGHT (MAKE ME BELIEVE)
TTITLE14=LILA McCANN - I'M AMAZED
TTITLE15=MARTINA McBRIDE - (I NEVER PROMISED YOU A) ROSE GARDEN
EXTD=
EXTT0=
EXTT1=
EXTT2=
EXTT3=
EXTT4=
EXTT5=
EXTT6=
EXTT7=
EXTT8=
EXTT9=
EXTT10=
EXTT11=
EXTT12=
EXTT13=
EXTT14=
EXTT15=
PLAYORDER=
